HIERARCHY
ROOT Hips
{
  OFFSET 55.1176 58.1779 -7.22162
  CHANNELS 6 Xposition Yposition Zposition Zrotation Xrotation Yrotation
  JOINT spine
  {
    OFFSET 0 6.84637 0.3937
    CHANNELS 3 Zrotation Xrotation Yrotation
    JOINT spine1
    {
      OFFSET 0 9.49621 0
      CHANNELS 3 Zrotation Xrotation Yrotation
      JOINT spine2
      {
        OFFSET 0 9.09909 0
        CHANNELS 3 Zrotation Xrotation Yrotation
        JOINT Neck
        {
          OFFSET 0 23.3612 1.11378
          CHANNELS 3 Zrotation Xrotation Yrotation
          JOINT Head
          {
            OFFSET 0 7.05802 0
            CHANNELS 3 Zrotation Xrotation Yrotation
            End Site
            {
              OFFSET 0 17.0844 -5.63418
            }
          }
        }
        JOINT RightShoulder
        {
          OFFSET -3.83136 9.82631 -0.533491
          CHANNELS 3 Zrotation Xrotation Yrotation
          JOINT RightArm
          {
            OFFSET 0 12.8881 0
            CHANNELS 3 Zrotation Xrotation Yrotation
            JOINT RightArmRoll
            {
              OFFSET 0 6.50617 0
              CHANNELS 3 Zrotation Xrotation Yrotation
              JOINT RightForeArm
              {
                OFFSET 0 18.9501 0
                CHANNELS 3 Zrotation Xrotation Yrotation
                JOINT RightForeArmRoll
                {
                  OFFSET 0 7.30093 0
                  CHANNELS 3 Zrotation Xrotation Yrotation
                  JOINT RightHand
                  {
                    OFFSET 0 14.6514 0
                    CHANNELS 3 Zrotation Xrotation Yrotation
                    End Site
                    {
                      OFFSET 0 0 0
                    }
                  }
                }
              }
            }
          }
        }
        JOINT LeftShoulder
        {
          OFFSET 3.83136 9.82631 -0.533491
          CHANNELS 3 Zrotation Xrotation Yrotation
          JOINT LeftArm
          {
            OFFSET 0 12.8881 0
            CHANNELS 3 Zrotation Xrotation Yrotation
            JOINT LeftArmRoll
            {
              OFFSET 0 6.50617 0
              CHANNELS 3 Zrotation Xrotation Yrotation
              JOINT LeftForeArm
              {
                OFFSET 0 18.9501 0
                CHANNELS 3 Zrotation Xrotation Yrotation
                JOINT LeftForeArmRoll
                {
                  OFFSET 0 7.30092 0
                  CHANNELS 3 Zrotation Xrotation Yrotation
                  JOINT LeftHand
                  {
                    OFFSET 0 14.6514 0
                    CHANNELS 3 Zrotation Xrotation Yrotation
                    End Site
                    {
                      OFFSET 0 0 0
                    }
                  }
                }
              }
            }
          }
        }
      }
    }
  }
  JOINT RightUpLeg
  {
    OFFSET -6.06837 -1.11278 -0.933477
    CHANNELS 3 Zrotation Xrotation Yrotation
    JOINT RightUpLegRoll
    {
      OFFSET 0 17.1796 0
      CHANNELS 3 Zrotation Xrotation Yrotation
      JOINT RightLeg
      {
        OFFSET 0 -21.2743 0
        CHANNELS 3 Zrotation Xrotation Yrotation
        JOINT RightLegRoll
        {
          OFFSET 0 21.3439 0
          CHANNELS 3 Zrotation Xrotation Yrotation
          JOINT RightFoot
          {
            OFFSET 0 17.7652 0
            CHANNELS 3 Zrotation Xrotation Yrotation
            JOINT RightToeBase
            {
              OFFSET 0 14.8508 0
              CHANNELS 3 Zrotation Xrotation Yrotation
              End Site
              {
                OFFSET 0.0062947 7.19214 -0.829004
              }
            }
          }
        }
      }
    }
  }
  JOINT LeftUpLeg
  {
    OFFSET 6.06837 -1.11278 -0.933477
    CHANNELS 3 Zrotation Xrotation Yrotation
    JOINT LeftUpLegRoll
    {
      OFFSET 0 17.1797 0
      CHANNELS 3 Zrotation Xrotation Yrotation
      JOINT LeftLeg
      {
        OFFSET 0 21.2742 0
        CHANNELS 3 Zrotation Xrotation Yrotation
        JOINT LeftLegRoll
        {
          OFFSET 0 21.5412 0
          CHANNELS 3 Zrotation Xrotation Yrotation
          JOINT LeftFoot
          {
            OFFSET 0 17.5679 0
            CHANNELS 3 Zrotation Xrotation Yrotation
            JOINT LeftToeBase
            {
              OFFSET 0 14.8508 0
              CHANNELS 3 Zrotation Xrotation Yrotation
              End Site
              {
                OFFSET -0.0282102 7.19214 -0.829005
              }
            }
          }
        }
      }
    }
  }
}
MOTION
Frames: 11
Frame Time: 0.00208333
57.2548 91.6229 39.3746 0.0446904 -5.82149 -1.45433 -0.0158138 -1.67763 -0.0497085 -0.0315581 0.654348 -0.0978244 -0.0304021 2.29942 -0.0973363 1.96524 29.7634 -2.62797 1.5235 -7.41734 -1.5235 70.6747 3.77197 0.459976 97.1946 20.0414 -11.0309 1.57472e-006 4.95179e-007 -3.41596e-006 20.0371 38.6351 -7.96564 -3.04045e-006 -1.09151e-005 -3 8.02892 -4.95084 0.697403 -66.4258 4.40467 -1.44877 -104.579 26.3242 5.26265 -7.34856e-007 -4.96868e-006 8.26993e-006 -23.8689 29.3295 7.15799 7.73983e-006 6.18248e-006 2.99999 -8.02946 -4.95143 -0.697684 175.555 -3.16146 1.60039 -180 7.01524e-015 178.828 177.861 5.35441 179.951 3.98695e-006 -1.13323e-006 0.0524214 -18.6087 67.8447 19.4078 8.1365 25.2327 -3.48774 -175.234 -5.50401 0.0865982 4.54188e-006 -4.6773e-006 -1.24185 -0.869295 -6.38204 0.145224 -3.7565e-006 -3.99298e-006 -0.0850936 18.9439 68.2384 -19.713 -8.13649 25.2327 3.48774 
57.2484 91.6181 39.3747 0.0438759 -5.80596 -1.45005 -0.0162006 -1.68087 -0.0498444 -0.031242 0.647289 -0.0980749 -0.0300827 2.29236 -0.097592 2.00006 29.9059 -2.66147 1.59016 -7.48496 -1.52702 70.7084 3.78362 0.460398 97.1368 19.909 -10.8197 1.57472e-006 4.95179e-007 -3.41596e-006 20.0244 38.3285 -7.89197 -3.04045e-006 -1.09151e-005 -3 8.02892 -4.95084 0.697403 -66.4369 4.44207 -1.46653 -104.502 26.171 5.03959 -7.34856e-007 -4.96868e-006 8.26993e-006 -23.8243 29.0711 7.07933 7.73983e-006 6.18248e-006 2.99999 -8.02946 -4.95143 -0.697684 175.526 -3.13862 1.65046 -180 7.01524e-015 178.828 177.799 5.36577 179.954 3.98695e-006 -1.13323e-006 0.0530286 -18.609 67.8451 19.4091 8.1365 25.2327 -3.48774 -175.233 -5.46847 0.0921959 4.54188e-006 -4.6773e-006 -1.24185 -0.860687 -6.41351 0.146747 -3.7565e-006 -3.99298e-006 -0.0864406 18.9568 68.2512 -19.7257 -8.13649 25.2327 3.48774 
57.243 91.6192 39.3708 0.0431176 -5.78989 -1.44543 -0.016603 -1.68429 -0.0500084 -0.0308928 0.639818 -0.0983787 -0.0297297 2.28489 -0.0979016 2.03428 30.0506 -2.69338 1.65653 -7.55752 -1.52913 70.7416 3.79569 0.461104 97.0808 19.7749 -10.6084 1.57472e-006 4.95179e-007 -3.41596e-006 20.0136 38.0208 -7.81932 -3.04045e-006 -1.09151e-005 -3 8.02892 -4.95084 0.697403 -66.4493 4.48046 -1.4846 -104.424 26.0161 4.8151 -7.34856e-007 -4.96868e-006 8.26993e-006 -23.7807 28.8118 7.00107 7.73983e-006 6.18248e-006 2.99999 -8.02946 -4.95143 -0.697684 175.495 -3.11486 1.70261 -180 7.01524e-015 178.828 177.735 5.378 179.957 3.98695e-006 -1.13323e-006 0.0536836 -18.6096 67.8459 19.4107 8.1365 25.2327 -3.48774 -175.232 -5.43166 0.0982055 4.54188e-006 -4.6773e-006 -1.24185 -0.851603 -6.44625 0.148345 -3.7565e-006 -3.99298e-006 -0.0878568 18.9703 68.2644 -19.7389 -8.13649 25.2327 3.48774 
57.2346 91.6201 39.3705 0.0423974 -5.77344 -1.44057 -0.0170162 -1.68784 -0.050192 -0.0305206 0.632059 -0.0987199 -0.0293531 2.27713 -0.0982489 2.06814 30.1969 -2.72423 1.72271 -7.63356 -1.53024 70.7744 3.80805 0.462009 97.0264 19.6395 -10.3972 1.57472e-006 4.95179e-007 -3.41596e-006 20.0045 37.7123 -7.74763 -3.04045e-006 -1.09151e-005 -3 8.02892 -4.95084 0.697403 -66.4627 4.51955 -1.50287 -104.347 25.8599 4.58982 -7.34856e-007 -4.96868e-006 8.26993e-006 -23.738 28.5518 6.92324 7.73983e-006 6.18248e-006 2.99999 -8.02946 -4.95143 -0.697684 175.463 -3.09043 1.75623 -180 7.01524e-015 178.828 177.67 5.39084 179.96 3.98695e-006 -1.13323e-006 0.054372 -18.6104 67.8468 19.4125 8.1365 25.2327 -3.48774 -175.232 -5.39397 0.104503 4.54188e-006 -4.6773e-006 -1.24185 -0.842187 -6.47986 0.149996 -3.7565e-006 -3.99298e-006 -0.0893214 18.9841 68.2781 -19.7526 -8.13649 25.2327 3.48774 
57.239 91.5882 39.366 0.0416977 -5.75678 -1.43557 -0.0174358 -1.69146 -0.0503869 -0.0301353 0.624134 -0.0990824 -0.0289631 2.26921 -0.0986177 2.10186 30.344 -2.7545 1.78878 -7.71157 -1.53079 70.8069 3.82057 0.463029 96.9734 19.5032 -10.1862 1.57472e-006 4.95179e-007 -3.41596e-006 19.9967 37.4033 -7.67683 -3.04045e-006 -1.09151e-005 -3 8.02892 -4.95084 0.697403 -66.4765 4.55903 -1.52126 -104.27 25.7028 4.36434 -7.34856e-007 -4.96868e-006 8.26993e-006 -23.6963 28.2913 6.84587 7.73983e-006 6.18248e-006 2.99999 -8.02946 -4.95143 -0.697684 175.431 -3.06563 1.81069 -180 7.01524e-015 178.828 177.603 5.40402 179.963 3.98695e-006 -1.13323e-006 0.0550795 -18.6113 67.8478 19.4144 8.1365 25.2327 -3.48774 -175.231 -5.35577 0.110965 4.54188e-006 -4.6773e-006 -1.24185 -0.832579 -6.51398 0.151677 -3.7565e-006 -3.99298e-006 -0.0908136 18.9983 68.2919 -19.7666 -8.13649 25.2327 3.48774 
57.2316 91.5923 39.366 0.0410008 -5.74007 -1.43054 -0.0178569 -1.69509 -0.0505846 -0.0297467 0.616168 -0.0994503 -0.0285699 2.26124 -0.098992 2.13568 30.4914 -2.78472 1.85482 -7.79007 -1.53119 70.8394 3.83314 0.464076 96.9215 19.3663 -9.97551 1.57472e-006 4.95179e-007 -3.41596e-006 19.99 37.0941 -7.60686 -3.04045e-006 -1.09151e-005 -3 8.02892 -4.95084 0.697403 -66.4904 4.59861 -1.53969 -104.194 25.5452 4.1393 -7.34856e-007 -4.96868e-006 8.26993e-006 -23.6553 28.0306 6.76902 7.73983e-006 6.18248e-006 2.99999 -8.02946 -4.95143 -0.697684 175.398 -3.04073 1.86535 -180 7.01524e-015 178.828 177.536 5.41728 179.967 3.98695e-006 -1.13323e-006 0.0557917 -18.6122 67.8489 19.4164 8.1365 25.2327 -3.48774 -175.23 -5.31744 0.117467 4.54188e-006 -4.6773e-006 -1.24185 -0.822922 -6.54823 0.153366 -3.7565e-006 -3.99298e-006 -0.0923127 19.0125 68.3059 -19.7806 -8.13649 25.2327 3.48774 
57.2624 91.59 39.3797 0.0402895 -5.72346 -1.42558 -0.0182749 -1.69869 -0.0507767 -0.0293649 0.608284 -0.0998075 -0.0281836 2.25336 -0.0993554 2.16984 30.6383 -2.81538 1.92091 -7.86759 -1.53189 70.872 3.84562 0.465067 96.8707 19.2292 -9.76536 1.57472e-006 4.95179e-007 -3.41596e-006 19.984 36.7851 -7.53764 -3.04045e-006 -1.09151e-005 -3 8.02892 -4.95084 0.697403 -66.504 4.63799 -1.55806 -104.12 25.3874 3.91528 -7.34856e-007 -4.96868e-006 8.26993e-006 -23.6151 27.77 6.6927 7.73983e-006 6.18248e-006 2.99999 -8.02946 -4.95143 -0.697684 175.366 -3.01603 1.9196 -180 7.01524e-015 178.828 177.47 5.43039 179.97 3.98695e-006 -1.13323e-006 0.0564944 -18.613 67.8499 19.4183 8.1365 25.2327 -3.48774 -175.23 -5.27936 0.123886 4.54188e-006 -4.6773e-006 -1.24185 -0.813357 -6.58222 0.15504 -3.7565e-006 -3.99298e-006 -0.093798 19.0266 68.3197 -19.7945 -8.13649 25.2327 3.48774 
57.2503 91.575 39.3756 0.0395464 -5.70712 -1.42079 -0.0186852 -1.7022 -0.0509547 -0.0289996 0.600606 -0.100138 -0.0278141 2.24568 -0.099692 2.20459 30.7841 -2.84701 1.98713 -7.94263 -1.5333 70.9049 3.8579 0.465916 96.8205 19.0924 -9.55587 1.57472e-006 4.95179e-007 -3.41596e-006 19.9785 36.4764 -7.4691 -3.04045e-006 -1.09151e-005 -3 8.02892 -4.95084 0.697403 -66.517 4.67687 -1.57628 -104.049 25.2298 3.69288 -7.34856e-007 -4.96868e-006 8.26993e-006 -23.5756 27.5097 6.61695 7.73983e-006 6.18248e-006 2.99999 -8.02946 -4.95143 -0.697684 175.334 -2.99178 1.97279 -180 7.01524e-015 178.828 177.405 5.44305 179.973 3.98695e-006 -1.13323e-006 0.0571733 -18.6137 67.8507 19.4201 8.1365 25.2327 -3.48774 -175.229 -5.24192 0.130098 4.54188e-006 -4.6773e-006 -1.24185 -0.804028 -6.61559 0.156677 -3.7565e-006 -3.99298e-006 -0.0952487 19.0404 68.3332 -19.8082 -8.13649 25.2327 3.48774 
57.2604 91.6322 39.3769 0.0387545 -5.69121 -1.41628 -0.019083 -1.70557 -0.0511103 -0.0286609 0.593259 -0.100426 -0.0274717 2.23833 -0.0999853 2.24018 30.9281 -2.8801 2.05356 -8.01371 -1.53585 70.9382 3.86984 0.466537 96.7709 18.9563 -9.34718 1.57472e-006 4.95179e-007 -3.41596e-006 19.9731 36.1685 -7.40118 -3.04045e-006 -1.09151e-005 -3 8.02892 -4.95084 0.697403 -66.5288 4.71495 -1.59427 -103.98 25.0728 3.47271 -7.34856e-007 -4.96868e-006 8.26993e-006 -23.5367 27.25 6.54182 7.73983e-006 6.18248e-006 2.99999 -8.02946 -4.95143 -0.697684 175.304 -2.96829 2.02431 -180 7.01524e-015 178.828 177.342 5.45502 179.976 3.98695e-006 -1.13323e-006 0.0578139 -18.6142 67.8513 19.4216 8.1365 25.2327 -3.48774 -175.228 -5.2055 0.13598 4.54188e-006 -4.6773e-006 -1.24185 -0.795075 -6.64794 0.158255 -3.7565e-006 -3.99298e-006 -0.0966442 19.0538 68.3463 -19.8214 -8.13649 25.2327 3.48774 
57.2614 91.6285 39.3777 0.0378969 -5.67589 -1.41213 -0.0194636 -1.70875 -0.0512349 -0.0283585 0.586366 -0.100655 -0.0271664 2.23144 -0.100219 2.27685 31.0696 -2.91519 2.12028 -8.07935 -1.53996 70.9722 3.88132 0.466846 96.7214 18.8211 -9.13944 1.57472e-006 4.95179e-007 -3.41596e-006 19.9676 35.8616 -7.3338 -3.04045e-006 -1.09151e-005 -3 8.02892 -4.95084 0.697403 -66.5392 4.75194 -1.61194 -103.914 24.9167 3.25533 -7.34856e-007 -4.96868e-006 8.26993e-006 -23.4984 26.9912 6.46731 7.73983e-006 6.18248e-006 2.99999 -8.02946 -4.95143 -0.697684 175.274 -2.94582 2.07352 -180 7.01524e-015 178.828 177.281 5.46603 179.979 3.98695e-006 -1.13323e-006 0.0584021 -18.6145 67.8516 19.4228 8.1365 25.2327 -3.48774 -175.227 -5.17047 0.141408 4.54188e-006 -4.6773e-006 -1.24185 -0.786642 -6.67891 0.15975 -3.7565e-006 -3.99298e-006 -0.0979636 19.0666 68.3588 -19.834 -8.13649 25.2327 3.48774 
57.2582 91.6135 39.3732 0.0369568 -5.66132 -1.40846 -0.0198225 -1.71167 -0.0513202 -0.0281024 0.580051 -0.100809 -0.0269082 2.22513 -0.100378 2.31487 31.208 -2.95278 2.18735 -8.13805 -1.54606 71.0069 3.89222 0.466756 96.672 18.6874 -8.93277 1.57472e-006 4.95179e-007 -3.41596e-006 19.9617 35.556 -7.26689 -3.04045e-006 -1.09151e-005 -3 8.02892 -4.95084 0.697403 -66.5477 4.78754 -1.6292 -103.852 24.7619 3.04135 -7.34856e-007 -4.96868e-006 8.26993e-006 -23.4605 26.7335 6.39347 7.73983e-006 6.18248e-006 2.99999 -8.02946 -4.95143 -0.697684 175.247 -2.92466 2.11979 -180 7.01524e-015 178.828 177.224 5.47585 179.981 3.98695e-006 -1.13323e-006 0.0589234 -18.6144 67.8515 19.4235 8.1365 25.2327 -3.48774 -175.226 -5.13722 0.146258 4.54188e-006 -4.6773e-006 -1.24185 -0.778871 -6.70813 0.16114 -3.7565e-006 -3.99298e-006 -0.0991863 19.0786 68.3705 -19.8458 -8.13649 25.2327 3.48774 
